# xmcd
#
# Track frame offsets: 
#        150
#        12680
#        25220
#        37500
#        49815
#        63142
#        72565
#        82717
#        96322
#        107300
#        120035
#        132617
#
# Disc length: 1893 seconds
#
# Revision: 2
# Processed by: cddbd v1.5.2PL0 Copyright (c) Steve Scherf et al.
# Submitted via: ExactAudioCopyFreeDBPlugin 1.0
#
DISCID=8e07630c
DTITLE=James Brown - The Great James Brown (3 CD Set Containing Classi
DTITLE=c Performances) [Rajon Music]
DYEAR=2002
DGENRE=Soul
TTITLE0=Just You and Me Darling
TTITLE1=I Love You, Yes I Do
TTITLE2=I Don't Mind
TTITLE3=Come Over Here
TTITLE4=The Bells
TTITLE5=Love Don't Love Nobody
TTITLE6=Dancin' Little Thing
TTITLE7=Lost Someone
TTITLE8=And I Do Just What I Want
TTITLE9=So Long
TTITLE10=You Don't Have to Go
TTITLE11=Tell Me What You're
EXTD=
EXTT0=
EXTT1=
EXTT2=
EXTT3=
EXTT4=
EXTT5=
EXTT6=
EXTT7=
EXTT8=
EXTT9=
EXTT10=
EXTT11=
PLAYORDER=
